<?xml version="1.0" encoding="UTF-8"?>
<svg id="_레이어_1" data-name="레이어_1" xmlns="http://www.w3.org/2000/svg" version="1.1" viewBox="0 0 64 64">
  <!-- Generator: Adobe Illustrator 29.3.1, SVG Export Plug-In . SVG Version: 2.1.0 Build 151)  -->
  <defs>
    <style>
      .st0 {
        fill: #fff;
      }
    </style>
  </defs>
  <path class="st0" d="M25.6,48.6c.2,0,.3.1.5.2.9.3,1.8.6,2.8.8l3.6-17.1h.5c7.3,0,21.8,0,21.8,0h.2s.2,0,.2,0h0c.2,0,.3,0,.5,0,2-.3,3.5-2.1,3.4-4.2,0-.3,0-.6-.1-.9-.8-4.4-2.7-8.7-5.5-12.2-1.8-.5-3.6-.9-5.2-1.2-5.5-1.1-10.1-1.2-13.9-.8,5,.5,9.5,3,12.7,6.9.9,1.1,1.6,2.2,2.2,3.5l.4.8h-20.3s0,0,0,0c-1,0-1.9.3-2.6.9-.7.6-1.2,1.3-1.4,2.2h0c0,0-3.9,18.7-3.9,18.7,1.3,1,2.7,1.8,4.2,2.4h.1Z"/>
  <path class="st0" d="M20.1,17.2s0,0,0,0c0,0,0,0,0,0,0,0,0,0,0,0,0,0,0,0,.1-.1,1.5-1.3,10.1-7.7,27.9-4.3,1.2.2,2.4.5,3.7.8-4.5-4.8-10.4-7.8-17-8.5-7.1-.7-14.2,1.3-19.8,5.8,0,.2-.1.4-.2.5,0,.2-.1.4-.2.5,0,.2-.2.4-.2.7,0,.2-.1.3-.2.5,0,.3-.2.5-.2.8,0,.1,0,.2-.1.4-.1.4-.2.8-.3,1.1,0,0,0,0,0,0-.1.5-.2.9-.3,1.3,0,.2,0,.3-.1.5,0,.3-.1.6-.2.9,0,.2,0,.4-.1.5,0,.3-.1.5-.1.8,0,.2,0,.4,0,.6,0,.3,0,.5-.1.8,0,.2,0,.4,0,.5,0,.3,0,.5,0,.8,0,.2,0,.3,0,.5,0,.3,0,.5,0,.8,0,.1,0,.3,0,.4,0,.3,0,.6,0,1,0,0,0,.2,0,.2,0,.4,0,.8,0,1.2,0,.1,0,.2,0,.3,0,.3,0,.5,0,.8,0,.1,0,.3,0,.4,0,.2,0,.5,0,.7,0,.1,0,.3,0,.4,0,.2,0,.4,0,.6,0,.1,0,.3,0,.4,0,.2,0,.4,0,.6,0,.1,0,.3,0,.4,0,.2,0,.4.1.6,0,.1,0,.2,0,.4,0,.2.1.4.2.7,0,0,0,.2,0,.3,0,0,0,0,0,0-.3-5.9,2.1-11.8,7-15.7Z"/>
  <path class="st0" d="M17.4,44c0,0-.1-.2-.2-.2h-.1c0-.2-9.5-10.7-4.5-28.7.1-.4.2-.8.4-1.2,0-.1,0-.3.1-.4,0-.3.2-.5.3-.8,0,0,0,0,0-.1-4.6,4.4-7.5,10.3-8.2,16.7-.7,7.1,1.3,14.1,5.8,19.7.2,0,.4.1.6.2.2,0,.3.1.5.2.2,0,.5.1.7.2.2,0,.3.1.5.2.3,0,.5.2.8.2.1,0,.3,0,.4.1.4.1.8.2,1.2.3.6.1,1.2.3,1.8.4,0,0,.2,0,.3,0,.6.1,1.1.2,1.6.3.1,0,.2,0,.3,0,.5,0,1.1.1,1.6.2,0,0,.1,0,.2,0,.5,0,1,0,1.5.1,0,0,0,0,.1,0,.5,0,1,0,1.5,0,0,0,.2,0,.2,0,.5,0,1,0,1.4,0,0,0,.2,0,.2,0,.5,0,.9,0,1.4,0,0,0,0,0,0,0,.4,0,.9,0,1.3-.1,0,0,.1,0,.2,0,.4,0,.8-.1,1.2-.2,0,0,.2,0,.3,0,0,0,.2,0,.2,0-.5,0-1,0-1.5-.1h0c0,0-.5,0-.5,0-1.2-.2-2.4-.5-3.5-.9-.2,0-.3-.1-.5-.2h-.1c-1.7-.7-3.3-1.7-4.7-2.8l-.3-.2h0c-1-.9-1.9-1.7-2.7-2.7Z"/>
  <path class="st0" d="M22,57.1c.3.1.6.3,1,.4,7.4,2.7,15.6,2,22.5-1.9,1.3-.8,2.6-1.6,3.7-2.5.8-.7,1.4-1.6,1.5-2.7s-.2-2.1-.9-3l-5.8-7.2c-1.4-1.7-3.9-2-5.7-.6-1.7,1.4-2,3.9-.6,5.7l2.4,3,.5.7-.6.4c-.3.1-.6.3-.8.4,0,0-.2,0-.2.1-.3.1-.5.2-.8.4,0,0,0,0-.1,0-.3.1-.6.3-1,.4,0,0-.2,0-.3.1-.3.1-.6.2-.9.3,0,0-.1,0-.2,0-.4.1-.7.2-1.1.3-.1,0-.2,0-.3,0-.3,0-.6.2-.9.2-.1,0-.2,0-.3,0-.4,0-.8.2-1.2.3-.1,0-.2,0-.3,0-.3,0-.7.1-1.1.2-.1,0-.2,0-.4,0-.4,0-.9.1-1.4.2,0,0-.2,0-.3,0-.4,0-.8,0-1.2,0-.1,0-.3,0-.4,0-.5,0-1,0-1.5,0s0,0,0,0c0,0-.1,0-.2,0-.5,0-.9,0-1.4,0-.1,0-.2,0-.4,0-.5,0-1.1,0-1.6-.1-.1,0-.2,0-.3,0-.5,0-1-.1-1.5-.2,0,0-.2,0-.3,0-.6,0-1.2-.2-1.8-.3-.1,0-.3,0-.4,0-.6-.1-1.2-.3-1.9-.4-.5-.1-.9-.2-1.4-.4-.1,0-.3,0-.5-.1-.3,0-.7-.2-1-.3,0,0-.1,0-.2,0,2.7,2.8,5.9,5,9.5,6.5Z"/>
</svg>